<svg xmlns="http://www.w3.org/2000/svg" viewBox="0 0 166.4 57.25">
  <defs>
    <style>
      .a {
        fill: #ecb50e;
      }

      .b {
        fill: #fff;
      }
    </style>
  </defs>
  <title>ronaldo7-logo</title>
  <g>
    <path class="a" d="M3.54,39.45V3.52h9.58a9.33,9.33,0,0,1,3.19.5,6.13,6.13,0,0,1,2.22,1.33,6.24,6.24,0,0,1,1.37,2,10.38,10.38,0,0,1,.72,2.53,19.37,19.37,0,0,1,.2,2.89q0,6.87-5,8.71l5.55,17.93H18L12.75,21.92h-6V39.45H3.54ZM6.71,19.37H13.1a4.52,4.52,0,0,0,2.3-.54,3.41,3.41,0,0,0,1.41-1.54,8.16,8.16,0,0,0,.66-2.09,14.66,14.66,0,0,0,.19-2.48,16.86,16.86,0,0,0-.11-2.07,8.87,8.87,0,0,0-.42-1.8,4.59,4.59,0,0,0-.8-1.47A3.53,3.53,0,0,0,15,6.43a4.72,4.72,0,0,0-1.9-.35H6.71v13.3Z" transform="translate(-3.14 -3.02)"/>
    <path class="a" d="M25.15,29V14a20,20,0,0,1,.28-3.49,11.75,11.75,0,0,1,1-3,7.91,7.91,0,0,1,1.69-2.38,7.26,7.26,0,0,1,2.61-1.53A10.81,10.81,0,0,1,34.31,3a10.82,10.82,0,0,1,3.63.56,7.26,7.26,0,0,1,2.61,1.53A7.93,7.93,0,0,1,42.25,7.5a11.75,11.75,0,0,1,.95,3A20,20,0,0,1,43.48,14V29q0,11-9.17,11T25.15,29Zm15.16,0.71V13.27q0-7.7-6-7.7t-6,7.7V29.75q0,7.72,6,7.72T40.31,29.75Z" transform="translate(-3.14 -3.02)"/>
    <path class="a" d="M48.91,39.45V3.52h2.44L62.73,32V3.52h2.69V39.45H63L51.64,11.6V39.45H48.91Z" transform="translate(-3.14 -3.02)"/>
    <path class="a" d="M72.64,39.45H69.45l7.1-35.93h4.13l7.1,35.93H84.57l-1.8-9.35H74.48ZM74.86,28h7.52L78.59,6.82Z" transform="translate(-3.14 -3.02)"/>
    <path class="a" d="M91.81,39.45V3.52H95V36.91h10v2.55H91.81Z" transform="translate(-3.14 -3.02)"/>
    <path class="a" d="M107.93,39.45V3.52H116a11,11,0,0,1,3.63.55,7.44,7.44,0,0,1,2.62,1.5,7.53,7.53,0,0,1,1.69,2.33,11.56,11.56,0,0,1,.94,2.92,19,19,0,0,1,.28,3.4V28.85q0,10.6-9.17,10.6h-8.08Zm3.17-2.55H116q6,0,6-7.35v-16q0-7.45-6-7.45H111.1V36.91Z" transform="translate(-3.14 -3.02)"/>
    <path class="a" d="M129.93,29V14a19.93,19.93,0,0,1,.28-3.49,11.75,11.75,0,0,1,.95-3,7.92,7.92,0,0,1,1.69-2.38,7.26,7.26,0,0,1,2.61-1.53,12,12,0,0,1,7.27,0,7.26,7.26,0,0,1,2.61,1.53A7.9,7.9,0,0,1,147,7.5a11.79,11.79,0,0,1,1,3,20,20,0,0,1,.28,3.49V29q0,11-9.17,11T129.93,29Zm15.16,0.71V13.27q0-7.7-6-7.7t-6,7.7V29.75q0,7.72,6,7.72T145.09,29.75Z" transform="translate(-3.14 -3.02)"/>
  </g>
  <path class="b" d="M156.2,39.45l6.3-30.19h-8.84V3.15h15.64V6.72L163,39.45H156.2Z" transform="translate(-3.14 -3.02)"/>
  <g>
    <path class="b" d="M6.32,56.55a2.19,2.19,0,0,0,.67.78,2.88,2.88,0,0,0,1,.44,4.59,4.59,0,0,0,1.16.14A6,6,0,0,0,10,57.85a3,3,0,0,0,.87-0.26,1.88,1.88,0,0,0,.67-0.53,1.33,1.33,0,0,0,.27-0.86,1.21,1.21,0,0,0-.36-0.91,2.84,2.84,0,0,0-.94-0.58,9.29,9.29,0,0,0-1.31-.4q-0.73-.17-1.49-0.39a13.2,13.2,0,0,1-1.5-.47,5.16,5.16,0,0,1-1.31-.72A3.4,3.4,0,0,1,4,51.62,3.36,3.36,0,0,1,3.6,50a3.6,3.6,0,0,1,.45-1.84,4.1,4.1,0,0,1,1.19-1.3A5.15,5.15,0,0,1,6.9,46.1a7.06,7.06,0,0,1,1.85-.25,8.74,8.74,0,0,1,2.07.24,5.18,5.18,0,0,1,1.76.78,4,4,0,0,1,1.22,1.38,4.23,4.23,0,0,1,.45,2H11.34a2.44,2.44,0,0,0-.26-1,1.7,1.7,0,0,0-.59-0.64,2.49,2.49,0,0,0-.84-0.33,5.23,5.23,0,0,0-1-.1,3.52,3.52,0,0,0-.73.08,2,2,0,0,0-.67.27,1.67,1.67,0,0,0-.49.48,1.3,1.3,0,0,0-.19.73,1.24,1.24,0,0,0,.15.66,1.38,1.38,0,0,0,.61.46,7.74,7.74,0,0,0,1.25.42l2.09,0.54q0.39,0.08,1.07.28a5.13,5.13,0,0,1,1.36.65A4.12,4.12,0,0,1,14.24,54a3.38,3.38,0,0,1,.49,1.9,4.21,4.21,0,0,1-.37,1.75A3.8,3.8,0,0,1,13.28,59a5.22,5.22,0,0,1-1.79.92A8.48,8.48,0,0,1,9,60.25,8.74,8.74,0,0,1,6.8,60a5.56,5.56,0,0,1-1.89-.88,4.33,4.33,0,0,1-1.3-1.52,4.55,4.55,0,0,1-.46-2.2H6.07A2.52,2.52,0,0,0,6.32,56.55Z" transform="translate(-3.14 -3.02)"/>
    <path class="b" d="M25.36,49.85a3.06,3.06,0,0,0-.68-0.76,3.11,3.11,0,0,0-.92-0.51,3.15,3.15,0,0,0-1.07-.18,3.53,3.53,0,0,0-1.74.4,3.28,3.28,0,0,0-1.16,1.06,4.65,4.65,0,0,0-.65,1.51,7.52,7.52,0,0,0-.2,1.75,7,7,0,0,0,.2,1.69,4.54,4.54,0,0,0,.65,1.48A3.31,3.31,0,0,0,21,57.33a3.53,3.53,0,0,0,1.74.4,2.8,2.8,0,0,0,2.17-.85,3.93,3.93,0,0,0,1-2.24h2.93a7,7,0,0,1-.6,2.33,5.58,5.58,0,0,1-1.27,1.77A5.4,5.4,0,0,1,25,59.87a6.79,6.79,0,0,1-2.33.39,7.06,7.06,0,0,1-2.84-.55,6.1,6.1,0,0,1-2.13-1.51,6.71,6.71,0,0,1-1.33-2.27,8.32,8.32,0,0,1-.46-2.81,8.61,8.61,0,0,1,.46-2.86,6.87,6.87,0,0,1,1.33-2.3,6.08,6.08,0,0,1,2.13-1.54,7.38,7.38,0,0,1,5-.23,5.85,5.85,0,0,1,1.81,1A5.18,5.18,0,0,1,28,48.68a5.56,5.56,0,0,1,.66,2.12H25.71A2.49,2.49,0,0,0,25.36,49.85Z" transform="translate(-3.14 -3.02)"/>
    <path class="b" d="M30.68,50.25A6.87,6.87,0,0,1,32,47.95a6.08,6.08,0,0,1,2.13-1.54,7.54,7.54,0,0,1,5.7,0A6.11,6.11,0,0,1,42,47.95a6.87,6.87,0,0,1,1.33,2.3,8.61,8.61,0,0,1,.46,2.86,8.32,8.32,0,0,1-.46,2.81A6.71,6.71,0,0,1,42,58.19a6.12,6.12,0,0,1-2.12,1.51,7.66,7.66,0,0,1-5.7,0A6.1,6.1,0,0,1,32,58.19a6.71,6.71,0,0,1-1.33-2.27,8.32,8.32,0,0,1-.46-2.81A8.61,8.61,0,0,1,30.68,50.25Zm2.77,4.55a4.54,4.54,0,0,0,.65,1.48,3.31,3.31,0,0,0,1.16,1.05,4,4,0,0,0,3.47,0,3.32,3.32,0,0,0,1.16-1.05,4.56,4.56,0,0,0,.65-1.48,7,7,0,0,0,.2-1.69,7.54,7.54,0,0,0-.2-1.75,4.67,4.67,0,0,0-.65-1.51,3.29,3.29,0,0,0-1.16-1.06,4,4,0,0,0-3.47,0,3.28,3.28,0,0,0-1.16,1.06,4.65,4.65,0,0,0-.65,1.51,7.52,7.52,0,0,0-.2,1.75A7,7,0,0,0,33.45,54.8Z" transform="translate(-3.14 -3.02)"/>
    <path class="b" d="M53.25,46.17a4.44,4.44,0,0,1,1.67.3,3.85,3.85,0,0,1,1.27.82A3.57,3.57,0,0,1,57,48.5,3.87,3.87,0,0,1,57.28,50a4.15,4.15,0,0,1-.51,2.1,3.21,3.21,0,0,1-1.67,1.35v0a2.32,2.32,0,0,1,.93.47,2.62,2.62,0,0,1,.6.75,3.5,3.5,0,0,1,.34,1,8.37,8.37,0,0,1,.14,1q0,0.33,0,.77t0.07,0.91a6,6,0,0,0,.15.88,2,2,0,0,0,.32.7h-3a5.32,5.32,0,0,1-.31-1.56q-0.06-.91-0.17-1.74a2.74,2.74,0,0,0-.66-1.58,2.26,2.26,0,0,0-1.64-.5h-3v5.38h-3V46.17h7.43ZM52.17,52.4a2.29,2.29,0,0,0,1.56-.46,1.92,1.92,0,0,0,.52-1.5A1.83,1.83,0,0,0,53.73,49a2.32,2.32,0,0,0-1.56-.45H48.85V52.4h3.32Z" transform="translate(-3.14 -3.02)"/>
    <path class="b" d="M70.05,46.17v2.55H62.78v3h6.67V54H62.78V57.4h7.43v2.55H59.75V46.17h10.3Z" transform="translate(-3.14 -3.02)"/>
    <path class="b" d="M72.13,46.17H78a6.88,6.88,0,0,1,1.28.13,3.46,3.46,0,0,1,1.31.55,3.21,3.21,0,0,1,1,1.18A4.25,4.25,0,0,1,82,50a3.53,3.53,0,0,1-1.12,2.8,4.7,4.7,0,0,1-3.2,1H73v6.13H72.13V46.17ZM73,53.08h4.84a4,4,0,0,0,1.57-.28,2.82,2.82,0,0,0,1-.72,2.79,2.79,0,0,0,.56-1A3.51,3.51,0,0,0,81.16,50,4.39,4.39,0,0,0,81,49.1a2.75,2.75,0,0,0-1.44-1.85,3.53,3.53,0,0,0-1.67-.34H73v6.17Z" transform="translate(-3.14 -3.02)"/>
    <path class="b" d="M83.53,46.17h5.75a7.52,7.52,0,0,1,1.7.18,4,4,0,0,1,1.39.6A2.85,2.85,0,0,1,93.3,48a3.74,3.74,0,0,1,.34,1.68,3.59,3.59,0,0,1-.78,2.34,3.41,3.41,0,0,1-2.17,1.19v0a3.29,3.29,0,0,1,1.49.5,2.46,2.46,0,0,1,.82.95A3.86,3.86,0,0,1,93.35,56a12,12,0,0,1,.08,1.35v0.79a6.44,6.44,0,0,0,0,.72,3.49,3.49,0,0,0,.13.63,1.44,1.44,0,0,0,.24.48H92.89a2.49,2.49,0,0,1-.3-1.13q0-.65,0-1.34T92.5,56.1a2.93,2.93,0,0,0-.37-1.23,2.19,2.19,0,0,0-1-.87,4.34,4.34,0,0,0-1.88-.33h-4.9v6.27H83.53V46.17Zm5.75,6.77a5.11,5.11,0,0,0,1.4-.18,3,3,0,0,0,1.11-.57,2.7,2.7,0,0,0,.73-1,3.45,3.45,0,0,0,.27-1.43,2.8,2.8,0,0,0-.29-1.32,2.57,2.57,0,0,0-.77-0.9,3.2,3.2,0,0,0-1.12-.5,5.64,5.64,0,0,0-1.33-.15h-4.9v6h4.9Z" transform="translate(-3.14 -3.02)"/>
    <path class="b" d="M95.68,46.17h9.26v0.73H96.53v5.52h7.91v0.73H96.53v6.06H105v0.73H95.68V46.17Z" transform="translate(-3.14 -3.02)"/>
    <path class="b" d="M106.49,46.17H111a7.2,7.2,0,0,1,3.08.58,5.2,5.2,0,0,1,2,1.54,5.9,5.9,0,0,1,1,2.2,10.79,10.79,0,0,1,.3,2.55,9.55,9.55,0,0,1-.38,2.73A5.93,5.93,0,0,1,115.82,58a5.49,5.49,0,0,1-2,1.46,7.08,7.08,0,0,1-2.86.53h-4.48V46.17Zm4.55,13a6.56,6.56,0,0,0,1.94-.3,4.71,4.71,0,0,0,1.76-1A5.1,5.1,0,0,0,116,56a7.82,7.82,0,0,0,.49-3,9.06,9.06,0,0,0-.28-2.41,6,6,0,0,0-.73-1.69,3.82,3.82,0,0,0-1-1.08,5.1,5.1,0,0,0-1.21-.61A5.91,5.91,0,0,0,112,47a10.66,10.66,0,0,0-1.13-.07h-3.53V59.21H111Z" transform="translate(-3.14 -3.02)"/>
    <path class="b" d="M119.35,46.17h0.85V59.94h-0.85V46.17Z" transform="translate(-3.14 -3.02)"/>
    <path class="b" d="M122.11,53.06a8.82,8.82,0,0,1,.44-2.83,6.79,6.79,0,0,1,1.28-2.29,5.94,5.94,0,0,1,2.06-1.53,6.59,6.59,0,0,1,2.77-.56,6.24,6.24,0,0,1,2.1.32,5.36,5.36,0,0,1,1.5.79,4.7,4.7,0,0,1,1,1,5.78,5.78,0,0,1,.59,1.05,5.21,5.21,0,0,1,.28.85c0.05,0.24.08,0.37,0.08,0.4h-0.85a4.1,4.1,0,0,0-.56-1.55,4.29,4.29,0,0,0-1.06-1.17,4.75,4.75,0,0,0-1.42-.73,5.42,5.42,0,0,0-5.85,1.67,6.14,6.14,0,0,0-1.12,2.05,8.34,8.34,0,0,0,0,5,6.14,6.14,0,0,0,1.12,2.05,5.31,5.31,0,0,0,4.2,1.92,4.35,4.35,0,0,0,1.88-.41,5.15,5.15,0,0,0,1.53-1.1,5.51,5.51,0,0,0,1.5-3.44h0.85a6.76,6.76,0,0,1-.61,2.28,6.38,6.38,0,0,1-1.25,1.8,5.5,5.5,0,0,1-1.76,1.19,5.44,5.44,0,0,1-2.14.42,6.59,6.59,0,0,1-2.77-.56,5.94,5.94,0,0,1-2.06-1.53,6.78,6.78,0,0,1-1.28-2.3A8.81,8.81,0,0,1,122.11,53.06Z" transform="translate(-3.14 -3.02)"/>
    <path class="b" d="M134.26,46.91V46.17h10.55v0.73H140v13H139.1v-13h-4.84Z" transform="translate(-3.14 -3.02)"/>
    <path class="b" d="M157.43,53.06a8.81,8.81,0,0,1-.44,2.83,6.78,6.78,0,0,1-1.28,2.3,6,6,0,0,1-2.05,1.53,6.52,6.52,0,0,1-2.76.56,6.59,6.59,0,0,1-2.77-.56,5.94,5.94,0,0,1-2.06-1.53,6.76,6.76,0,0,1-1.28-2.3,9.21,9.21,0,0,1,0-5.65,6.77,6.77,0,0,1,1.28-2.29,5.94,5.94,0,0,1,2.06-1.53,6.59,6.59,0,0,1,2.77-.56,6.52,6.52,0,0,1,2.76.56,6,6,0,0,1,2.05,1.53A6.79,6.79,0,0,1,157,50.23,8.82,8.82,0,0,1,157.43,53.06Zm-12.25,0a8,8,0,0,0,.39,2.51,6.16,6.16,0,0,0,1.12,2.05,5.32,5.32,0,0,0,4.21,1.92,5.35,5.35,0,0,0,2.4-.52,5.46,5.46,0,0,0,1.78-1.4,6.16,6.16,0,0,0,1.12-2.05,8.34,8.34,0,0,0,0-5,6.16,6.16,0,0,0-1.12-2.05,5.45,5.45,0,0,0-1.78-1.4,5.34,5.34,0,0,0-2.4-.52,5.32,5.32,0,0,0-4.21,1.92,6.16,6.16,0,0,0-1.12,2.05A8,8,0,0,0,145.18,53.06Z" transform="translate(-3.14 -3.02)"/>
    <path class="b" d="M159.24,46.17H165a7.51,7.51,0,0,1,1.7.18,4,4,0,0,1,1.39.6A2.85,2.85,0,0,1,169,48a3.74,3.74,0,0,1,.34,1.68,3.58,3.58,0,0,1-.78,2.34,3.41,3.41,0,0,1-2.17,1.19v0a3.29,3.29,0,0,1,1.5.5,2.46,2.46,0,0,1,.82.95,3.84,3.84,0,0,1,.35,1.23,12,12,0,0,1,.08,1.35v0.79a6.45,6.45,0,0,0,0,.72,3.58,3.58,0,0,0,.13.63,1.42,1.42,0,0,0,.24.48h-0.94a2.5,2.5,0,0,1-.3-1.13q0-.65,0-1.34t-0.06-1.38a2.94,2.94,0,0,0-.37-1.23,2.2,2.2,0,0,0-1-.87,4.34,4.34,0,0,0-1.88-.33h-4.9v6.27h-0.85V46.17ZM165,52.94a5.11,5.11,0,0,0,1.4-.18,3,3,0,0,0,1.11-.57,2.7,2.7,0,0,0,.73-1,3.44,3.44,0,0,0,.27-1.43,2.81,2.81,0,0,0-.29-1.32,2.56,2.56,0,0,0-.77-0.9,3.18,3.18,0,0,0-1.12-.5,5.65,5.65,0,0,0-1.33-.15h-4.9v6H165Z" transform="translate(-3.14 -3.02)"/>
  </g>
</svg>
