<svg xmlns="http://www.w3.org/2000/svg" viewBox="0 0 512 512" class="dg-notification-icon">
  <path class="dg-notification-bg" d="M256,0h0C397.38,0,512,114.62,512,256h0c0,141.38-114.62,256-256,256h0C114.62,512,0,397.38,0,256H0C0,114.62,114.62,0,256,0Z"/>
  <polygon class="b" points="163 216.32 163 256 163 295.68 366 414.73 366 256 366 97.27 163 216.32"/>
  <rect class="c" x="364.28" y="86.05" width="23.82" height="339.91" rx="4.26" ry="4.26"/>
  <path class="d" d="M77.92,256.67q0,1.3.12,2.62A42.65,42.65,0,0,0,120.69,299h41.83V213H120.69a42.68,42.68,0,0,0-42.78,42.58Q77.91,256.12,77.92,256.67Z"/>
  <path class="e" d="M117.71,299v95.72a20,20,0,0,0,20,20h0a20,20,0,0,0,20-20V299h-40Z"/>
  <rect class="c" x="155.27" y="207.25" width="15.75" height="97.5" rx="4.88" ry="4.88"/>
</svg>
