<svg class="dg-trophey" version="1.1" id="Layer_1" xmlns="http://www.w3.org/2000/svg" xmlns:xlink="http://www.w3.org/1999/xlink" x="0px" y="0px"
	 viewBox="-1342.8 953.2 87.6 92.8" style="enable-background:new -1342.8 953.2 87.6 92.8;" xml:space="preserve">
<style type="text/css">
	.st0{fill:url(#SVGID_1_);}
</style>
	<g>
			<linearGradient id="SVGID_1_" gradientUnits="userSpaceOnUse" x1="-1342.8" y1="1003" x2="-1255.2001" y2="1003" gradientTransform="matrix(1 0 0 -1 0 2004)">
			<stop  offset="0.5" style="stop-color:#EFC503"/>
			<stop  offset="0.5" style="stop-color:#E99A03"/>
		</linearGradient>
		<path class="st0" d="M-1271.4,970.9c0.4-7.6,0.1-13,0.1-13h-55.4c0,0-0.3,5.4,0.1,13h-16.2v2.6c0,6.7,1.4,39.9,29.1,41.1 c3.2,3.5,7.1,5.9,12.1,6.5v10.7c-2.3,1.7-12.3,8.6-21.1,8.6v3.7h47.5v-4c-9.6,0-18.9-6.7-21.1-8.4v-10.6c4.9-0.6,8.9-3,12.1-6.5 c27.6-1.2,29-34.3,29-41.1v-2.6H-1271.4z M-1337.4,976.1h11.2c0.9,10.4,3.1,23.2,8.3,32.5C-1334.3,1004.8-1337,984.6-1337.4,976.1z M-1280.1,1008.7c5.2-9.3,7.4-22.1,8.3-32.5h11.2C-1261,984.6-1263.7,1004.8-1280.1,1008.7z"/>
	</g>
</svg>
